<svg width="25" height="25" viewBox="0 0 25 25" fill="none" xmlns="http://www.w3.org/2000/svg">
    <path fill-rule="evenodd" clip-rule="evenodd"
        d="M12.5 0.048439C8.25469 0.048439 4.8125 3.35938 4.8125 7.44375C4.8125 8.49844 5.04687 9.50156 5.45937 10.4094L12.6313 21.8484L19.5406 10.4094C19.9547 9.50156 20.1844 8.49688 20.1844 7.44375C20.1844 3.35938 16.7453 0.048439 12.5 0.048439ZM12.5 12.6891C9.83594 12.6891 7.67969 10.5219 7.67969 7.84844C7.67969 5.17813 9.83594 3.00938 12.5 3.00938C15.1609 3.00938 17.3219 5.17813 17.3219 7.84844C17.3219 10.5219 15.1609 12.6891 12.5 12.6891ZM15.5891 7.78594C15.5891 9.5 14.2047 10.8875 12.4984 10.8875C10.7938 10.8875 9.40937 9.49844 9.40937 7.78594C9.40937 6.075 10.7938 4.6875 12.4984 4.6875C14.2047 4.6875 15.5891 6.07656 15.5891 7.78594Z"
        fill="#434343" />
    <path fill-rule="evenodd" clip-rule="evenodd"
        d="M8.27959 18.4738C5.59678 19.0426 4.48389 19.7891 4.48389 20.6281C4.48389 21.8297 7.34365 23.4859 12.4765 23.4859C17.6093 23.4859 20.4709 21.8297 20.4709 20.6281C20.4709 19.7922 19.364 19.0676 16.7187 18.4738V17.1922C19.6327 17.7641 21.803 18.9125 21.803 20.6281C21.803 23.1031 16.9968 24.9577 12.4765 24.9577C7.95615 24.9577 3.1499 23.1031 3.1499 20.6281C3.1499 18.9094 5.33428 17.7391 8.26396 17.1875L8.27959 18.4738Z"
        fill="#434343" />
</svg>