<svg width="25" height="25" viewBox="0 0 25 25" fill="none" xmlns="http://www.w3.org/2000/svg">
    <path fill-rule="evenodd" clip-rule="evenodd"
        d="M20.8334 4.16666C22.5594 4.16666 23.9584 5.56578 23.9584 7.29166V17.7083C23.9584 19.4343 22.5594 20.8333 20.8334 20.8333H4.16675C2.44086 20.8333 1.04175 19.4343 1.04175 17.7083V7.29166C1.04175 5.56578 2.44086 4.16666 4.16675 4.16666H20.8334ZM20.0552 6.25H4.94506L11.8547 11.7049C12.2331 12.0037 12.7671 12.0037 13.1456 11.7049L20.0552 6.25ZM3.12508 7.4675V17.7083C3.12508 18.2836 3.59146 18.75 4.16675 18.75H20.8334C21.4087 18.75 21.8751 18.2836 21.8751 17.7083V7.46752L14.4364 13.3401C13.3011 14.2365 11.699 14.2365 10.5637 13.3401L3.12508 7.4675Z"
        fill="#434343" />
</svg>