<svg width="25" height="25" viewBox="0 0 25 25" fill="none" xmlns="http://www.w3.org/2000/svg">
<path fill-rule="evenodd" clip-rule="evenodd" d="M16.7714 13.9156L17.2459 13.444C17.9017 12.7918 18.924 12.6578 19.7632 13.114L21.7533 14.1958C23.0313 14.8905 23.313 16.5932 22.3141 17.5865L20.8343 19.0577C20.4581 19.4319 19.9912 19.7053 19.4543 19.7553C18.2124 19.8711 15.6574 19.8086 12.643 18.0441L16.7714 13.9156ZM10.6151 7.79434L10.9139 7.49727C11.6499 6.76546 11.7193 5.59053 11.0771 4.73279L9.76365 2.97821C8.96888 1.91658 7.43313 1.77634 6.52218 2.68211L4.88718 4.30783C4.43549 4.75696 4.1328 5.33916 4.16951 5.98501C4.23693 7.17131 4.64131 9.33844 6.40792 12.0016L10.6151 7.79434Z" fill="#434343"/>
<path opacity="0.6" d="M12.5654 11.9761C9.49686 8.92504 10.608 7.80118 10.6149 7.79419L6.40771 12.0015C7.10166 13.0475 8.00581 14.1702 9.1823 15.34C10.3695 16.5204 11.537 17.3967 12.6427 18.044L16.7712 13.9155C16.7712 13.9155 15.6435 15.0368 12.5654 11.9761Z" fill="#434343"/>
</svg>
